<svg xmlns="http://www.w3.org/2000/svg" xmlns:xlink="http://www.w3.org/1999/xlink" viewBox="0,0,256,256" width="32px" height="32px" fill-rule="nonzero"><g fill="#959393" fill-rule="nonzero" stroke="none" stroke-width="1" stroke-linecap="butt" stroke-linejoin="miter" stroke-miterlimit="10" stroke-dasharray="" stroke-dashoffset="0" font-family="none" font-weight="none" font-size="none" text-anchor="none" style="mix-blend-mode: normal"><g transform="scale(8,8)"><path d="M12.46289,2.99219c-5.23763,0 -9.50586,4.26629 -9.50586,9.50391c0,5.23762 4.26823,9.50586 9.50586,9.50586c1.08819,0 2.13055,-0.19235 3.10547,-0.53125c0.42522,1.41637 1.124,2.83689 1.95117,4.06641c1.05766,1.57212 2.20817,2.87974 3.70508,3.25781c4.87745,1.23095 8.96318,-3.29574 7.51367,-7.60937c-0.48175,-1.43396 -1.7597,-2.59453 -3.28711,-3.61914c-1.22736,-0.82333 -2.63365,-1.50591 -4.02734,-1.92773c0.34724,-0.98554 0.54492,-2.04046 0.54492,-3.14258c0,-5.23762 -4.26824,-9.50391 -9.50586,-9.50391zM12.46289,4.99219c4.15674,0 7.50586,3.34716 7.50586,7.50391c0,2.8618 -1.58804,5.34061 -3.93359,6.60742c-0.15316,0.03337 -0.29634,0.10228 -0.41797,0.20117c-0.95926,0.4436 -2.02477,0.69727 -3.1543,0.69727c-4.15675,0 -7.50586,-3.34912 -7.50586,-7.50586c0,-4.15674 3.34911,-7.50391 7.50586,-7.50391zM20.54297,17.47266c1.24324,0.33787 2.63566,0.97821 3.79492,1.75586c1.32584,0.88939 2.30461,1.99471 2.50586,2.59375c0.96049,2.85837 -1.59231,5.92625 -5.13086,5.0332c-0.44811,-0.11454 -1.61506,-1.07081 -2.5332,-2.43555c-0.78048,-1.1601 -1.43145,-2.56779 -1.77148,-3.82422c1.27425,-0.78158 2.3484,-1.85205 3.13477,-3.12305z"></path></g></g></svg>